# AST/ASF file generated using VICON BodyLanguage
# -----------------------------------------------
:version 1.10
:name VICON
:units
  mass 1.0
  length 0.45
  angle deg
:documentation
   .ast/.asf automatically generated from VICON data using
   VICON BodyBuilder and BodyLanguage model FoxedUp or BRILLIANT.MOD
:root
   order TX TY TZ RX RY RZ
   axis XYZ
   position 0 0 0  
   orientation 0 0 0 
:bonedata
  begin
     id 1 
     name lhipjoint
     direction 0.621563 -0.714088 0.322083 
     length 2.21591 
     axis 0 0 0  XYZ
  end
  begin
     id 2 
     name lfemur
     direction 0.34202 -0.939693 0  
     length 6.84027  
     axis 0 0 20  XYZ
    dof rx ry rz
    limits (-160.0 20.0)
           (-70.0 70.0)
           (-60.0 70.0)
  end
  begin
     id 3 
     name ltibia
     direction 0.34202 -0.939693 0   
     length 6.74005   
     axis 0 0 20   XYZ
    dof rx
    limits (-10.0 170.0)
  end
  begin
     id 4 
     name lfoot
     direction 0.0348332 -0.0960526 0.994767   
     length 1.54672   
     axis -90 7.62852e-016 20   XYZ
    dof rx rz
    limits (-45.0 90.0)
           (-70.0 20.0)
  end
  begin
     id 5 
     name ltoes
     direction 1.53538e-011 -4.22089e-011 1   
     length 0.792077   
     axis -90 7.62852e-016 20   XYZ
    dof rx
    limits (-90.0 20.0)
  end
  begin
     id 6 
     name rhipjoint
     direction -0.648389 -0.693984 0.313015   
     length 2.2801  
     axis 0 0 0  XYZ 
  end
  begin
     id 7 
     name rfemur
     direction -0.34202 -0.939693 0   
     length 6.62341   
     axis 0 0 -20   XYZ
    dof rx ry rz
    limits (-160.0 20.0)
           (-70.0 70.0)
           (-70.0 60.0)
  end
  begin
     id 8 
     name rtibia
     direction -0.34202 -0.939693 0   
     length 6.63811   
     axis 0 0 -20   XYZ
    dof rx
    limits (-10.0 170.0)
 end
 begin
     id 9 
     name rfoot
     direction -0.0578404 -0.158915 0.985596   
     length 1.64992  
     axis -90 -7.62852e-016 -20   XYZ
    dof rx rz
    limits (-45.0 90.0)
           (-20.0 70.0)
  end
  begin
     id 10 
     name rtoes
     direction -1.53571e-011 -4.21911e-011 1   
     length 0.839909   
     axis -90 -7.62852e-016 -20   XYZ
    dof rx
    limits (-90.0 20.0)
  end
  begin
     id 11 
     name lowerback
     direction 0.000554472 0.999997 -0.00226605   
     length 1.81878   
     axis 0 0 0   XYZ
    dof rx ry rz
    limits (-20.0 45.0)
           (-30.0 30.0)
           (-30.0 30.0)
  end
  begin
     id 12 
     name upperback
     direction 0.00177008 0.999761 -0.021771   
     length 1.81977   
     axis 0 0 0   XYZ
    dof rx ry rz
    limits (-20.0 45.0)
           (-30.0 30.0)
           (-30.0 30.0)
  end
  begin
     id 13 
     name thorax
     direction 0.00134147 0.999799 -0.0200243   
     length 1.81422   
     axis 0 0 0   XYZ
    dof rx ry rz
    limits (-20.0 45.0)
           (-30.0 30.0)
           (-30.0 30.0)
  end
  begin
     id 14 
     name lowerneck
     direction -0.0819714 0.987506 0.134583   
     length 1.68295   
     axis 0 0 0   XYZ
    dof rx ry rz
    limits (-20.0 45.0)
           (-30.0 30.0)
           (-30.0 30.0)
  end
  begin
     id 15 
     name upperneck
     direction 0.0867129 0.969666 -0.228538   
     length 1.71188   
     axis 0 0 0   XYZ
    dof rx ry rz
    limits (-20.0 45.0)
           (-30.0 30.0)
           (-30.0 30.0)
  end
  begin
     id 16
     name head
     direction 0.023699 0.995021 -0.0968101  
     length 1.73365  
     axis 0 0 0   XYZ
    dof rx ry rz
    limits (-20.0 45.0)
           (-30.0 30.0)
           (-30.0 30.0)
  end
  begin
     id 17 
     name lclavicle
     direction 0.912847 0.398248 0.090054  
     length 3.56518  
     axis 0 0 0   XYZ
    dof ry rz
    limits (-20.0 10.0)
           (0.0 20.0)
  end
  begin
     id 18 
     name lhumerus
     direction 1 -4.48961e-011 -4.05442e-028   
     length 4.05444   
     axis 180 -30 -90   XYZ
    dof rx ry rz
    limits (-60.0 90.0)
           (-90.0 90.0)
           (-90.0 90.0)
  end
  begin
     id 19
     name lradius
     direction 1 -4.4897e-011 1.54979e-027   
     length 3.21205   
     axis 180 -30 -90   XYZ
    dof rx
    limits (-10.0 170.0)
  end
  begin
     id 20
     name lwrist
     direction 1 -4.48979e-011 1.55564e-027   
     length 1.60602   
     axis -1.61768e-015 90 90   XYZ
    dof ry
    limits (-180.0 0.0)
 end
  begin
     id 21 
     name lhand
     direction 1 -4.48877e-011 3.11128e-027   
     length 0.707407   
     axis -1.98526e-015 90 90   XYZ
    dof rx rz
    limits (-90.0 90.0)
           (-45.0 45.0)
  end
  begin
     id 22 
     name lfingers
     direction 1 -4.49016e-011 6.22255e-027   
     length 0.57033   
     axis -3.97052e-015 90 90   XYZ
    dof rx
    limits (0.0 90.0)
  end
  begin
     id 23
     name lthumb
     direction 0.707107 -6.35011e-011 0.707107   
     length 0.818883   
     axis -90 45 2.85299e-015   XYZ
    dof rx rz
    limits (-45.0 45.0)
           (-45.0 45.0)
  end
  begin
     id 24 
     name rclavicle
     direction -0.930415 0.353791 0.0957082   
     length 3.54688  
     axis 0 0 0   XYZ 
    dof ry rz
    limits (-10.0 20.0)
           (-20.0 0.0)
  end
  begin
     id 25 
     name rhumerus
     direction -1 -4.48952e-011 -8.4136e-018  
     length 3.74048   
     axis 180 30 90   XYZ
    dof rx ry rz
    limits (-90.0 60.0)
           (-90.0 90.0)
           (-90.0 90.0)
  end
  begin
     id 26 
     name rradius
     direction -1 -4.48964e-011 1.66692e-027   
     length 3.1603   
     axis 180 30 90   XYZ
    dof rx
    limits (-10.0 170.0)
  end
  begin
     id 27 
     name rwrist
     direction -1 -4.49008e-011 1.55564e-027   
     length 1.58015   
     axis -1.61768e-015 -90 -90   XYZ
    dof ry
    limits (-180.0 0.0)
  end
  begin
     id 28
     name rhand
     direction -1 -4.48922e-011 3.11128e-027   
     length 0.717028   
     axis -1.98526e-015 -90 -90   XYZ
    dof rx rz
    limits (-90.0 90.0)
           (-45.0 45.0)
  end
  begin
     id 29
     name rfingers
     direction -1 -4.49002e-011 6.22255e-027   
     length 0.578086   
     axis -3.97052e-015 -90 -90   XYZ
    dof rx
    limits (0.0 90.0)
  end
  begin
     id 30
     name rthumb
     direction -0.707107 -6.34899e-011 0.707107   
     length 0.83002   
     axis -90 -45 -2.85299e-015   XYZ
    dof rx rz
    limits (-45.0 45.0)
           (-45.0 45.0)
  end
:hierarchy
  begin
    root lhipjoint rhipjoint lowerback
    lhipjoint lfemur
    lfemur ltibia
    ltibia lfoot
    lfoot ltoes
    rhipjoint rfemur
    rfemur rtibia
    rtibia rfoot
    rfoot rtoes
    lowerback upperback
    upperback thorax
    thorax lowerneck lclavicle rclavicle
    lowerneck upperneck
    upperneck head
    lclavicle lhumerus
    lhumerus lradius
    lradius lwrist
    lwrist lhand lthumb
    lhand lfingers
    rclavicle rhumerus
    rhumerus rradius
    rradius rwrist
    rwrist rhand rthumb
    rhand rfingers
  end

#!OML:ASF G:\acrobat\cartwheel_test\acrobat_wednesday\Session 1\acrobatwednesday.ASF
:FULLY-SPECIFIED
:DEGREES
231
root -13.9667 16.5026 -11.797 -525.378 128.426 -185.15
lowerback 4.5601 1.60535 2.30642
upperback 0.223238 2.23535 -1.02745
thorax -2.1964 1.0882 -2.49076
lowerneck -25.8278 0.117681 -3.45068
upperneck 23.5059 2.60085 -3.24634
head 12.0468 0.413946 -0.193526
rclavicle 4.50247e-014 1.51076e-014
rhumerus -27.5833 -12.6348 -75.8051
rradius 36.6751
rwrist 16.4463
rhand -30.2628 -354.993
rfingers 7.12502
rthumb -3.57125 -744.943
lclavicle 4.50247e-014 1.51076e-014
lhumerus -205.131 144.945 -105.675
lradius 12.4218
lwrist -0.00476107
lhand -32.5088 -380.768
lfingers 7.12502
lthumb -5.73996 9.13377
rfemur 8.29682 9.68881 27.2472
rtibia 1.62995
rfoot -31.5189 6.59116
rtoes 19.9819
lfemur -41.32 12.2528 -20.2385
ltibia 50.8095
lfoot -4.3791 -9.12989
ltoes 60.8773
232
root -14.0213 16.5881 -11.8369 -525.256 128.622 -185.086
lowerback 4.69348 1.47401 2.28783
upperback 0.198468 2.06494 -0.914442
thorax -2.31155 1.00173 -2.35869
lowerneck -25.692 -0.195636 -3.47698
upperneck 22.7028 1.9922 -2.85236
head 11.7003 0.211745 -0.145622
rclavicle 6.47044e-014 -7.95139e-015
rhumerus -28.0638 -13.9356 -74.8306
rradius 36.1696
rwrist 14.931
rhand -30.5339 -356.082
rfingers 7.12502
rthumb -3.83306 -746.027
lclavicle 6.47044e-014 -7.95139e-015
lhumerus -206.802 139.269 -108.269
lradius 10.7959
lwrist -5.79372
lhand -32.69 -380.935
lfingers 7.12502
lthumb -5.91494 8.96274
rfemur 7.5186 8.6766 26.4836
rtibia 1.8697
rfoot -30.5585 4.49746
rtoes 20.4046
lfemur -40.8606 12.61 -20.9122
ltibia 48.8041
lfoot -5.34023 -10.3464
ltoes 61.9403
233
root -14.0672 16.6713 -11.8676 -525.067 128.971 -184.847
lowerback 4.91056 1.45007 2.03665
upperback 0.201728 2.02412 -0.89725
thorax -2.44139 0.982289 -2.20445
lowerneck -25.8147 -0.54618 -3.63636
upperneck 22.106 1.33478 -2.16303
head 11.4839 0.0048228 0.0249097
rclavicle -1.05455e-013 1.39149e-014
rhumerus -28.8981 -14.8707 -73.8378
rradius 35.7256
rwrist 14.0574
rhand -30.4453 -357.065
rfingers 7.12502
rthumb -3.74753 -747.011
lclavicle -1.05455e-013 1.39149e-014
lhumerus -208.137 136.251 -109.958
lradius 10.1209
lwrist -8.47475
lhand -32.6237 -380.35
lfingers 7.12502
lthumb -5.85093 9.54926
rfemur 6.75214 7.37492 25.482
rtibia 2.32906
rfoot -29.0941 1.85057
rtoes 21.2867
lfemur -40.4324 13.0985 -21.614
ltibia 46.9845
lfoot -4.11734 -10.6302
ltoes 62.0301
234
root -14.1035 16.7469 -11.8916 -524.946 129.361 -184.698
lowerback 5.0993 1.42336 1.77226
upperback 0.208119 1.97808 -0.844335
thorax -2.55371 0.961151 -2.00443
lowerneck -25.9656 -0.817442 -3.89293
upperneck 21.6106 0.859161 -1.52491
head 11.3187 -0.139097 0.222107
rclavicle -1.11618e-013 5.52621e-014
rhumerus -29.9011 -15.2612 -72.8089
rradius 35.1719
rwrist 14.1351
rhand -29.839 -357.493
rfingers 7.12502
rthumb -3.16194 -747.449
lclavicle -1.11618e-013 5.52621e-014
lhumerus -208.803 135.174 -110.546
lradius 9.92059
lwrist -8.74182
lhand -32.4044 -380.728
lfingers 7.12502
lthumb -5.63918 9.17742
rfemur 6.01399 6.14941 24.5964
rtibia 2.89986
rfoot -27.6948 -0.652311
rtoes 22.0268
lfemur -40.213 13.5351 -22.1101
ltibia 45.5039
lfoot -5.43763 -10.4141
ltoes 62.2369
235
root -14.1295 16.8098 -11.9096 -524.923 129.65 -184.644
lowerback 5.24322 1.3542 1.54026
upperback 0.220204 1.87734 -0.73668
thorax -2.63761 0.913336 -1.76058
lowerneck -25.9992 -1.04558 -4.30799
upperneck 21.1498 0.505596 -0.870149
head 11.1499 -0.2393 0.471054
rclavicle -6.60959e-014 -1.51076e-014
rhumerus -30.9155 -15.1357 -71.8033
rradius 34.3475
rwrist 15.0612
rhand -29.4511 -357.909
rfingers 7.12502
rthumb -2.78738 -747.87
lclavicle -6.60959e-014 -1.51076e-014
lhumerus -209.514 134.055 -111.209
lradius 10.0431
lwrist -8.9699
lhand -31.9357 -381.13
lfingers 7.12502
lthumb -5.18663 8.78604
rfemur 5.40601 5.03156 23.9371
rtibia 3.40217
rfoot -26.4495 -3.1361
rtoes 22.0108
lfemur -40.0409 13.644 -22.3379
ltibia 44.1984
lfoot -6.94526 -10.7075
ltoes 63.0181
236
root -14.1558 16.858 -11.922 -525.048 129.882 -184.643
lowerback 5.53485 1.36097 1.32232
upperback 0.258679 1.87673 -0.737596
thorax -2.76832 0.91463 -1.64722
lowerneck -25.7981 -1.34433 -4.73633
upperneck 20.5753 -0.0122878 0.0122647
head 10.905 -0.38297 0.776986
rclavicle 5.25785e-014 -1.31198e-014
rhumerus -31.8433 -15.273 -70.9198
rradius 33.0972
rwrist 16.9535
rhand -29.4556 -359.117
rfingers 7.12502
rthumb -2.79167 -749.079
lclavicle 5.25785e-014 -1.31198e-014
lhumerus -208.747 135.469 -110.208
lradius 10.4667
lwrist -6.91481
lhand -31.6346 -378.435
lfingers 7.12502
lthumb -4.89592 11.4888
rfemur 4.95928 4.41003 23.5981
rtibia 3.89929
rfoot -25.8217 -4.66491
rtoes 21.5588
lfemur -39.9856 13.5645 -22.257
ltibia 43.1136
lfoot -4.69491 -11.6167
ltoes 62.422
237
root -14.1841 16.8935 -11.9297 -525.386 130.065 -184.809
lowerback 5.97364 1.41638 1.23007
upperback 0.327223 1.9463 -0.842754
thorax -2.94026 0.948693 -1.72132
lowerneck -25.5775 -1.64011 -5.04588
upperneck 20.0082 -0.594272 1.01362
head 10.6712 -0.534047 1.09466
rclavicle 4.67144e-014 -2.62396e-014
rhumerus -32.5917 -16.1743 -70.0038
rradius 31.2568
rwrist 20.0151
rhand -29.5402 -359.491
rfingers 7.12502
rthumb -2.8734 -749.451
lclavicle 4.67144e-014 -2.62396e-014
lhumerus -207.299 138.044 -108.76
lradius 10.9437
lwrist -4.14959
lhand -32.01 -376.598
lfingers 7.12502
lthumb -5.25838 13.3171
rfemur 4.64543 4.32871 23.6373
rtibia 4.45812
rfoot -26.0301 -4.64791
rtoes 21.1063
lfemur -40.4003 13.5302 -21.8279
ltibia 42.709
lfoot -6.66254 -12.3865
ltoes 62.9374
238
root -14.1992 16.9109 -11.9266 -525.662 130.285 -184.896
lowerback 6.20429 1.47094 1.05747
upperback 0.463645 2.00563 -0.982651
thorax -2.92728 0.981064 -1.7782
lowerneck -25.6235 -1.88533 -5.10205
upperneck 19.5725 -1.08871 1.6832
head 10.5378 -0.672782 1.26379
rclavicle 5.1684e-014 2.26615e-014
rhumerus -33.2174 -17.4361 -68.9987
rradius 29.1877
rwrist 23.6264
rhand -29.2983 -358.201
rfingers 7.12502
rthumb -2.63983 -748.164
lclavicle 5.1684e-014 2.26615e-014
lhumerus -205.877 140.684 -107.533
lradius 11.4553
lwrist -1.56446
lhand -32.7417 -379.333
lfingers 7.12502
lthumb -5.96482 10.5631
rfemur 4.46463 3.95759 23.6031
rtibia 4.95782
rfoot -25.9416 -4.64982
rtoes 20.4898
lfemur -40.9304 13.5623 -21.371
ltibia 42.4814
lfoot -6.79623 -12.9296
ltoes 62.5168
239
root -14.1964 16.9091 -11.9134 -525.887 130.479 -184.966
lowerback 6.13612 1.50663 0.850008
upperback 0.627348 2.03668 -1.09465
thorax -2.72224 1.00186 -1.77425
lowerneck -25.5147 -2.18461 -4.69709
upperneck 18.9102 -1.63172 1.56121
head 10.2913 -0.900361 1.06348
rclavicle 6.08281e-014 3.22031e-014
rhumerus -33.7495 -18.8746 -67.9619
rradius 27.1286
rwrist 27.2873
rhand -28.266 -357.285
rfingers 7.12502
rthumb -1.64285 -747.259
lclavicle 6.08281e-014 3.22031e-014
lhumerus -204.676 142.767 -106.737
lradius 11.9439
lwrist 0.307121
lhand -32.7833 -380.811
lfingers 7.12502
lthumb -6.00499 9.08392
rfemur 4.45879 3.35762 23.5338
rtibia 5.29467
rfoot -25.3814 -5.43047
rtoes 20.2263
lfemur -41.2489 13.5205 -20.8543
ltibia 41.6996
lfoot -7.14382 -13.5483
ltoes 62.0446
240
root -14.1884 16.8991 -11.8978 -526.183 130.426 -185.132
lowerback 6.13873 1.43704 0.734083
upperback 0.734622 1.93652 -1.13194
thorax -2.61924 0.954961 -1.73743
lowerneck -24.1344 -2.43764 -4.59276
upperneck 17.2624 -2.08361 1.54447
head 9.47489 -1.0964 0.974382
rclavicle 6.63941e-014 -3.06128e-014
rhumerus -34.3309 -20.3518 -66.8172
rradius 25.1061
rwrist 30.8641
rhand -27.7781 -356.587
rfingers 7.12502
rthumb -1.17161 -746.564
lclavicle 6.63941e-014 -3.06128e-014
lhumerus -203.522 144.559 -106.13
lradius 12.4223
lwrist 1.94662
lhand -32.701 -379.886
lfingers 7.12502
lthumb -5.92559 10.011
rfemur 4.62912 3.11559 23.7351
rtibia 5.39681
rfoot -25.3593 -5.83721
rtoes 20.6045
lfemur -41.5644 13.1708 -20.0557
ltibia 40.5991
lfoot -8.30283 -14.0837
ltoes 62.2373
241
root -14.1718 16.8849 -11.8786 -526.522 130.384 -185.316
lowerback 6.26153 1.32982 0.589025
upperback 0.826217 1.78568 -1.12655
thorax -2.60327 0.882291 -1.64016
lowerneck -23.6899 -2.68419 -4.68525
upperneck 16.8544 -2.43811 1.66378
head 9.26936 -1.25261 0.980991
rclavicle 6.44062e-014 3.97569e-015
rhumerus -34.9903 -21.7914 -65.5491
rradius 23.2835
rwrist 34.3043
rhand -27.9854 -355.145
rfingers 7.12502
rthumb -1.37183 -745.12
lclavicle 6.44062e-014 3.97569e-015
lhumerus -202.474 146.402 -105.56
lradius 12.9709
lwrist 3.99008
lhand -32.9427 -380.183
lfingers 7.12502
lthumb -6.15886 9.70716
rfemur 4.95257 3.18962 24.0175
rtibia 5.32953
rfoot -25.8677 -5.29842
rtoes 21.0164
lfemur -41.8409 12.8633 -19.0832
ltibia 39.3018
lfoot -8.68967 -14.3967
ltoes 61.8245
242
root -14.1398 16.8637 -11.8574 -526.908 130.55 -185.605
lowerback 6.28351 1.24897 0.492497
upperback 0.922946 1.67341 -1.1066
thorax -2.52279 0.828718 -1.55511
lowerneck -23.3022 -2.62907 -5.00165
upperneck 16.1867 -2.37354 2.11682
head 8.97797 -1.18866 1.20098
rclavicle -2.42517e-014 -1.03368e-014
rhumerus -35.6818 -23.5261 -64.1134
rradius 21.6951
rwrist 37.8523
rhand -27.8222 -354.066
rfingers 7.12502
rthumb -1.21418 -744.043
lclavicle -2.42517e-014 -1.03368e-014
lhumerus -201.614 147.323 -105.395
lradius 13.3616
lwrist 5.13244
lhand -33.1557 -380.629
lfingers 7.12502
lthumb -6.36449 9.25539
rfemur 5.30715 3.47827 24.2905
rtibia 5.35529
rfoot -26.1509 -5.04373
rtoes 21.5375
lfemur -42.0786 12.8392 -18.0249
ltibia 37.7937
lfoot -9.48945 -14.5834
ltoes 61.661
